<?xml version="1.0" standalone="no"?>
<!DOCTYPE svg PUBLIC "-//W3C//DTD SVG 20010904//EN"
 "http://www.w3.org/TR/2001/REC-SVG-20010904/DTD/svg10.dtd">
<svg version="1.0" xmlns="http://www.w3.org/2000/svg"
 width="800.000000pt" height="480.000000pt" viewBox="0 0 800.000000 480.000000"
 preserveAspectRatio="xMidYMid meet">
<metadata>
Created by potrace 1.16, written by Peter Selinger 2001-2019
</metadata>
<g transform="translate(0.000000,480.000000) scale(0.100000,-0.100000)"
fill="#000000" stroke="none">
<path d="M4265 4743 c38 -150 57 -348 44 -459 -27 -236 -108 -366 -364 -577
-120 -99 -181 -166 -212 -233 -14 -31 -30 -57 -37 -59 -26 -8 -476 -16 -476
-8 0 4 48 62 106 128 71 81 117 144 142 194 l37 75 0 140 c0 151 -16 247 -58
340 l-22 48 3 -113 c7 -233 -52 -359 -245 -520 -160 -134 -239 -217 -265 -274
-27 -63 5 -53 -318 -95 -305 -40 -467 -66 -560 -91 -41 -11 -95 -24 -120 -29
-68 -15 -187 -59 -275 -101 -128 -62 -225 -154 -225 -213 0 -24 0 -24 -122 31
-68 30 -197 80 -288 111 -135 45 -178 55 -235 56 -154 2 -275 -84 -275 -194 0
-47 26 -117 51 -136 8 -7 104 -53 214 -104 199 -92 200 -93 285 -94 47 -1 91
-6 98 -10 7 -4 22 -28 34 -52 37 -79 151 -156 273 -185 75 -17 77 -20 93 -95
26 -131 84 -250 209 -427 90 -128 136 -179 232 -261 104 -88 225 -169 347
-230 110 -56 338 -140 425 -158 36 -7 68 -17 70 -23 2 -6 -48 -15 -126 -23
-90 -9 -148 -21 -190 -38 -54 -22 -78 -25 -230 -28 -117 -2 -189 -9 -230 -20
-65 -18 -239 -99 -580 -270 l-220 -111 -9 -57 c-7 -47 -5 -63 10 -94 24 -48
61 -67 216 -110 230 -64 324 -79 518 -79 157 0 186 3 280 27 69 17 146 28 225
32 l120 6 27 -44 c20 -34 42 -53 87 -76 144 -72 356 -142 561 -183 304 -62
303 -62 434 -48 67 7 177 16 247 20 145 8 197 27 253 92 28 33 48 44 114 64
57 18 92 36 123 63 42 38 43 41 47 110 l4 72 42 0 c22 0 68 7 101 15 39 9 83
12 126 8 48 -4 81 -1 125 13 32 9 82 16 110 15 70 -4 132 15 165 50 22 24 39
31 98 39 88 12 112 24 182 89 30 28 64 60 77 71 29 25 27 56 -6 104 -18 27
-40 44 -67 53 -22 7 -61 30 -87 51 -32 27 -77 49 -147 73 -56 18 -101 37 -101
40 0 3 66 27 148 53 272 88 436 172 607 311 236 193 421 431 583 752 76 151
77 153 125 172 63 27 133 85 161 135 13 23 38 86 55 141 17 55 42 117 56 138
30 43 44 43 110 -2 96 -67 172 -88 250 -67 108 28 160 84 159 171 -2 148 -190
309 -432 370 -260 66 -489 21 -568 -111 -11 -18 -13 -18 -63 5 -28 14 -56 30
-62 37 -20 24 614 603 779 712 71 46 178 84 294 102 43 7 83 19 89 26 16 19 5
91 -19 123 -42 56 -206 111 -334 111 -128 0 -176 -16 -345 -112 -349 -200
-669 -433 -951 -694 -127 -118 -106 -111 -287 -89 -66 8 -181 22 -255 30 -156
19 -190 25 -190 34 0 3 36 33 79 65 164 123 241 273 241 470 0 110 -20 196
-71 302 -30 65 -49 91 -90 123 -48 38 -69 49 -69 36 0 -3 15 -36 34 -73 53
-105 69 -172 61 -251 -8 -79 -31 -174 -52 -216 -32 -62 -126 -176 -195 -237
-139 -122 -178 -161 -178 -179 0 -10 -10 -21 -22 -25 -36 -12 -761 5 -774 18
-9 10 15 65 44 100 14 16 52 48 85 70 150 102 292 270 337 400 26 76 38 209
22 241 -7 12 -30 76 -53 142 -40 117 -161 385 -175 385 -3 0 -3 -12 1 -27z
m139 -412 c27 -30 34 -205 12 -289 -43 -169 -120 -263 -352 -432 -29 -21 -62
-58 -84 -95 -32 -55 -35 -66 -35 -140 0 -87 2 -92 130 -335 24 -47 45 -91 45
-97 0 -26 -26 -11 -50 29 -14 22 -68 78 -121 124 -162 139 -181 171 -176 288
3 63 9 82 35 123 34 53 134 154 274 277 109 96 178 173 208 232 27 55 80 254
80 301 0 38 9 41 34 14z m2789 -155 c56 -13 137 -60 145 -84 2 -6 -14 -14 -35
-17 -121 -20 -282 -85 -392 -159 -29 -20 -55 -36 -58 -36 -9 0 -279 -229 -408
-345 -66 -59 -303 -292 -527 -516 -230 -231 -415 -409 -425 -409 -56 0 -383
94 -383 110 0 8 482 479 639 624 197 182 497 429 667 548 118 83 473 277 524
287 69 14 189 12 253 -3z m174 -152 c5 -16 -40 -33 -120 -46 -85 -13 -127 -33
-267 -125 -231 -153 -496 -389 -998 -889 -308 -307 -398 -391 -413 -387 -11 3
-19 11 -17 18 5 20 436 461 653 668 223 213 517 472 633 559 153 113 313 187
449 207 66 10 75 9 80 -5z m-3923 -131 c-7 -67 -31 -146 -65 -222 -22 -48 -53
-88 -123 -160 -121 -124 -129 -141 -124 -251 4 -83 6 -89 56 -171 30 -49 55
-103 58 -125 l5 -39 -41 47 c-22 26 -78 78 -124 117 -113 95 -131 125 -130
221 1 130 46 205 176 296 108 75 235 203 273 276 17 32 33 58 37 58 4 0 5 -21
2 -47z m1834 -63 c-8 -136 -99 -280 -250 -396 -95 -74 -109 -125 -83 -302 15
-103 15 -117 1 -167 -9 -30 -20 -57 -25 -60 -5 -3 -13 20 -16 50 -5 38 -20 76
-47 121 -22 36 -47 86 -55 111 -37 107 14 249 118 331 158 125 233 210 315
355 44 78 49 73 42 -43z m-1576 -456 c4 -3 8 -14 8 -24 0 -21 -42 -25 -337
-35 -178 -5 -203 -1 -170 33 13 13 54 17 208 24 106 4 195 11 198 14 6 6 78
-3 93 -12z m723 1 c271 -7 315 -11 315 -30 0 -12 -57 -14 -370 -12 l-370 2 0
29 0 29 98 -7 c53 -3 201 -8 327 -11z m737 -40 c57 -8 155 -19 218 -25 168
-16 213 -24 218 -38 2 -8 -11 -12 -45 -12 -47 0 -534 50 -542 56 -2 2 -1 10 2
19 8 19 21 19 149 0z m-2273 -24 c16 -29 -2 -36 -124 -50 -242 -28 -508 -72
-665 -110 -91 -22 -203 -47 -249 -55 -195 -37 -328 -167 -278 -272 67 -139
644 -296 1317 -358 297 -27 562 -37 982 -36 227 1 454 1 503 1 285 -2 1004 51
1430 105 364 45 439 61 541 109 196 94 238 216 105 308 -44 30 -180 88 -254
108 l-38 10 21 29 c21 29 21 29 63 14 49 -17 161 -77 240 -127 66 -43 108
-107 115 -177 4 -44 1 -51 -33 -88 -64 -71 -150 -112 -341 -162 -240 -63 -329
-76 -997 -145 -81 -8 -234 -17 -340 -20 -106 -3 -253 -10 -327 -16 -290 -21
-1472 2 -1815 37 -84 8 -603 101 -700 125 -218 54 -365 121 -462 210 -124 115
-130 142 -51 225 118 125 286 189 688 263 213 39 546 87 627 90 22 1 35 -5 42
-18z m1811 -25 c10 -4 15 -21 16 -51 1 -37 11 -60 63 -139 60 -90 87 -166 65
-178 -5 -2 -54 0 -109 5 -55 4 -201 11 -324 15 l-224 7 -17 50 c-9 28 -41 88
-72 135 -57 88 -82 145 -72 162 7 11 648 6 674 -6z m-979 -16 c4 -8 16 -33 27
-55 11 -25 59 -76 122 -133 111 -99 137 -129 124 -142 -5 -4 -160 -9 -344 -11
l-335 -4 0 36 c0 24 -12 54 -35 90 -79 125 -106 198 -79 214 11 7 354 23 453
21 41 -1 61 -5 67 -16z m1548 -20 c139 -16 256 -32 259 -35 3 -3 -63 -75 -148
-160 -173 -173 -149 -162 -303 -149 -89 8 -96 16 -72 84 13 37 14 60 5 141 -9
77 -7 150 4 149 0 0 115 -13 255 -30z m-2354 -50 c9 -16 20 -30 25 -30 6 0 10
-7 10 -15 0 -7 38 -45 83 -84 83 -69 137 -125 137 -141 0 -13 -25 -18 -125
-25 -160 -12 -486 -55 -636 -86 -164 -33 -359 -88 -426 -120 -54 -26 -77 -21
-220 47 -100 48 -133 80 -133 128 0 39 41 104 83 134 82 56 692 181 1032 211
156 14 153 15 170 -19z m3860 20 c50 -6 122 -20 160 -31 80 -24 206 -86 254
-127 l33 -27 -129 0 c-115 -1 -135 -3 -196 -27 -80 -32 -148 -77 -199 -130
l-36 -39 -23 46 c-35 70 -79 116 -152 159 l-66 38 32 40 c30 37 99 81 157 99
35 10 62 10 165 -1z m-5909 -179 c140 -41 324 -105 324 -112 0 -3 -28 -9 -62
-13 -125 -13 -178 -34 -240 -97 -53 -55 -78 -105 -63 -129 11 -18 -13 -11
-102 30 -103 48 -139 79 -154 134 -25 92 30 173 141 207 40 12 52 10 156 -20z
m5479 -79 c91 -46 115 -69 115 -114 0 -114 -105 -188 -324 -227 -94 -17 -95
-17 -89 27 7 49 -21 84 -98 123 l-60 30 33 46 c18 25 71 81 117 124 l84 77 86
-30 c47 -17 109 -42 136 -56z m879 30 c67 -23 91 -57 91 -130 0 -80 -18 -117
-69 -142 -104 -50 -207 2 -151 76 18 24 19 68 2 82 -29 24 -94 25 -141 3 -108
-53 -181 -155 -221 -309 -21 -82 -57 -132 -131 -183 -43 -29 -54 -26 -34 10 5
10 25 81 45 157 19 76 48 166 64 199 33 66 102 142 165 183 105 66 275 90 380
54z m-2976 -122 c18 -11 35 -20 37 -20 12 0 3 26 -16 46 l-21 23 173 -6 c159
-5 175 -7 190 -26 12 -14 23 -18 40 -14 29 7 55 -6 44 -23 -4 -6 1 -17 11 -25
21 -16 64 -20 64 -6 0 5 -10 11 -22 13 -15 2 -23 10 -23 22 0 11 -6 21 -13 24
-6 2 -12 8 -12 13 0 11 120 1 132 -10 4 -3 1 -35 -8 -71 -25 -106 -2 -119 70
-38 33 38 53 52 73 53 32 0 42 21 14 30 -39 12 -21 25 34 25 30 0 55 -4 55
-10 0 -5 -7 -10 -15 -10 -8 0 -15 -4 -15 -10 0 -13 23 -13 36 0 7 7 21 7 42
-1 18 -6 32 -12 32 -14 0 -1 -23 -25 -51 -53 -43 -43 -50 -54 -39 -67 27 -32
240 -98 423 -129 20 -4 37 -10 37 -15 0 -10 -103 -7 -120 4 -17 10 -60 -14
-53 -31 7 -18 -16 -18 -60 1 -48 20 -63 20 -46 -1 10 -13 10 -17 -2 -25 -23
-15 -39 -10 -48 14 -5 13 -15 24 -23 24 -7 0 -24 3 -38 8 -24 7 -24 7 -7 -12
25 -29 21 -41 -18 -49 -37 -7 -178 0 -234 12 -23 5 -32 3 -27 -4 14 -23 -82
-33 -360 -37 -156 -2 -293 -7 -304 -10 -11 -4 -29 0 -42 9 -28 20 -58 21 -58
2 0 -14 -29 -26 -64 -26 -12 0 -16 5 -13 15 4 8 2 17 -2 20 -5 3 -7 14 -4 25
5 17 0 20 -26 20 -31 0 -41 -13 -21 -25 8 -5 8 -11 1 -19 -6 -7 -8 -16 -4 -19
3 -4 -6 -7 -20 -7 -34 0 -158 50 -173 70 -10 12 -16 12 -40 1 -24 -11 -30 -10
-40 3 -12 18 -34 21 -34 6 0 -13 37 -32 58 -29 39 4 62 -2 62 -15 0 -8 8 -17
18 -21 36 -15 -33 -21 -152 -13 -66 4 -124 4 -130 -1 -6 -4 -54 -4 -106 1 -52
4 -130 11 -173 14 -53 4 -77 10 -74 17 2 7 15 11 28 10 23 -3 23 -2 5 12 -11
8 -28 15 -38 15 -10 0 -26 9 -35 19 -9 11 -20 18 -24 15 -10 -6 -1 -34 20 -58
16 -18 13 -18 -84 -13 -55 4 -101 6 -103 7 -2 0 -2 8 0 17 2 10 -4 19 -14 21
-12 2 -18 -3 -18 -14 0 -14 -7 -16 -52 -10 -29 3 -68 6 -85 6 -22 0 -33 5 -33
15 0 8 -9 19 -21 26 -19 10 -20 8 -14 -10 5 -17 2 -21 -14 -21 -11 0 -25 8
-30 19 -6 10 -20 21 -31 24 -20 5 -25 -3 -20 -32 1 -12 -1 -13 -13 -2 -9 7
-21 11 -29 9 -7 -1 -24 4 -38 13 -14 8 -38 21 -54 29 -33 17 -46 40 -22 40 10
0 13 6 10 15 -5 12 -9 13 -20 4 -8 -6 -29 -15 -47 -19 -31 -8 -31 -8 -4 -9 16
-1 27 -7 27 -15 0 -8 12 -19 28 -24 25 -10 23 -10 -20 -11 -27 -1 -48 4 -48 9
0 6 -13 10 -30 10 -16 0 -30 5 -30 10 0 6 -15 8 -39 4 -37 -6 -40 -5 -43 21
-2 16 -10 31 -18 35 -8 4 -25 12 -37 18 -13 7 -32 12 -43 12 -28 0 -25 13 7
28 51 23 116 10 71 -15 -30 -16 -2 -18 39 -2 27 10 28 11 8 25 -17 13 -18 16
-5 24 19 12 63 13 76 1 5 -6 27 -14 49 -19 22 -5 47 -11 55 -13 9 -3 14 3 14
14 -2 15 4 17 46 11 46 -6 49 -5 64 25 9 17 30 38 46 46 40 21 188 39 204 26
19 -16 96 -26 96 -12 0 6 -14 11 -31 11 -51 0 -22 18 39 25 31 3 79 8 106 11
41 4 48 3 43 -10 -5 -13 1 -16 31 -15 20 0 31 3 25 6 -27 10 -11 23 30 23 70
0 73 -5 59 -106 -6 -48 -9 -90 -7 -93 10 -10 36 26 83 114 42 79 51 90 80 96
26 5 32 4 28 -7 -3 -8 -1 -14 4 -14 5 0 12 -9 15 -20 7 -22 45 -28 45 -6 0 7
-7 19 -15 26 -8 7 -15 16 -15 21 0 5 53 9 118 9 64 0 155 1 201 2 60 2 86 -1
89 -10 5 -17 42 -15 42 3 0 22 38 18 50 -5 12 -23 45 -28 37 -6 -6 16 49 31
77 20 18 -7 22 -24 6 -24 -5 0 -10 -5 -10 -11 0 -6 11 -8 29 -4 27 6 29 4 36
-32 8 -41 8 -121 -1 -165 -5 -23 -2 -28 13 -28 15 0 27 19 51 78 17 42 36 100
43 127 17 76 20 83 28 62 3 -9 21 -26 39 -37z m-2855 -23 c93 -46 169 -113
191 -168 10 -23 22 -94 27 -158 6 -64 14 -130 19 -148 10 -37 6 -43 -31 -43
-20 0 -36 11 -58 39 -38 47 -56 97 -81 218 -11 51 -28 110 -39 132 -18 35 -27
41 -105 66 -93 30 -146 30 -192 0 -25 -16 -26 -19 -19 -89 7 -83 1 -94 -63
-103 -50 -7 -127 26 -143 61 -19 41 -3 111 33 141 76 64 182 96 305 92 71 -3
92 -8 156 -40z m-67 -101 c60 -28 70 -48 83 -168 8 -72 24 -115 62 -170 40
-56 15 -63 -76 -20 -62 30 -127 92 -140 133 -4 13 -25 43 -46 66 -31 33 -38
48 -33 67 3 13 1 27 -5 30 -16 10 -13 52 5 70 23 23 91 20 150 -8z m5249 -123
c-3 -10 -20 -57 -37 -105 l-30 -87 -48 6 c-98 12 -220 -42 -253 -112 -16 -33
-19 -35 -65 -35 -27 0 -63 7 -81 16 -18 9 -61 16 -99 17 -72 2 -59 7 -256 -97
-86 -45 -126 -46 -266 -5 -151 43 -200 39 -359 -36 -110 -51 -126 -56 -174
-52 -28 2 -81 17 -117 32 -124 54 -216 47 -413 -31 -110 -44 -171 -47 -226
-11 -48 32 -162 73 -228 82 -67 9 -155 -14 -234 -60 -119 -70 -178 -70 -329 0
-54 24 -123 48 -154 53 -60 10 -198 0 -255 -17 -18 -6 -77 -13 -130 -17 -112
-8 -141 2 -259 80 -109 72 -147 80 -336 73 -88 -3 -179 -2 -200 3 -47 10 -87
38 -101 69 -12 26 -83 50 -173 58 -34 3 -64 9 -67 12 -2 4 -4 43 -6 86 -1 64
1 79 12 76 8 -3 92 -31 186 -62 165 -56 315 -90 598 -138 223 -38 388 -52 730
-61 187 -5 478 -14 646 -21 311 -12 805 -3 1159 22 170 11 695 69 960 105 245
33 472 96 547 152 36 27 68 29 58 5z m-4738 -224 c15 -5 46 -28 68 -49 69 -67
91 -72 294 -64 202 8 213 6 316 -61 105 -68 164 -87 267 -87 47 0 124 8 170
18 46 10 124 18 173 18 96 1 89 3 230 -73 59 -32 62 -33 165 -29 101 4 108 6
199 51 52 26 109 50 128 53 44 8 161 -25 255 -72 54 -27 79 -34 126 -34 66 0
159 22 211 50 114 60 205 66 322 19 69 -27 98 -33 164 -33 79 -1 82 0 191 58
148 78 169 80 323 27 166 -57 179 -56 313 26 131 80 185 90 282 54 103 -38
183 -20 220 51 24 46 87 80 160 86 42 3 54 0 70 -17 21 -23 18 -25 -53 -35
-59 -9 -96 -30 -161 -92 -31 -29 -68 -58 -83 -63 -39 -15 -111 -13 -182 4
-125 30 -152 22 -283 -77 -43 -32 -46 -33 -135 -32 -75 2 -108 8 -179 33 -49
17 -104 31 -123 31 -23 0 -76 -22 -162 -67 -122 -64 -131 -67 -198 -67 -58 0
-86 6 -164 38 -131 53 -188 50 -359 -23 -67 -29 -145 -55 -172 -58 -59 -7
-120 13 -176 58 -50 39 -133 63 -199 56 -28 -3 -82 -19 -120 -36 -103 -47
-270 -66 -346 -39 -19 6 -56 26 -84 43 -97 61 -192 69 -380 35 -189 -35 -275
-24 -427 54 -122 63 -185 77 -379 85 -162 7 -167 7 -199 34 -49 42 -109 69
-165 76 -45 5 -50 9 -53 34 -3 27 -2 27 52 27 30 0 67 -5 83 -11z m4627 -101
c-24 -78 -197 -387 -285 -510 -176 -245 -453 -469 -713 -577 -192 -80 -369
-122 -681 -163 -127 -16 -964 -16 -1181 0 -499 38 -918 133 -1194 272 -110 55
-296 166 -362 217 -186 142 -402 491 -443 714 l-7 37 52 11 c97 21 128 15 210
-36 l75 -47 185 -6 185 -6 100 -51 c55 -28 134 -63 175 -78 74 -27 77 -27 246
-20 94 3 188 11 210 17 79 23 123 15 232 -40 l101 -52 113 0 c129 1 209 15
292 53 92 42 133 38 262 -29 l109 -56 80 5 c72 4 91 10 188 57 138 68 181 70
340 16 167 -56 232 -50 390 42 114 65 149 72 222 38 77 -35 158 -49 256 -44
82 4 85 5 124 43 77 74 157 95 270 70 88 -20 174 -16 224 9 17 9 61 44 97 76
54 49 72 60 101 60 31 0 34 -2 27 -22z m-3431 -1217 c143 -25 407 -56 612 -73
343 -28 1072 -10 1330 32 45 7 61 7 67 -3 8 -10 2 -127 -7 -135 -7 -8 -117
-33 -200 -47 -179 -30 -419 -37 -875 -26 -439 11 -556 20 -766 61 -235 46
-325 88 -310 144 3 12 6 31 6 44 0 27 2 27 143 3z m-209 -50 c2 -34 9 -49 29
-67 52 -44 296 -109 528 -139 397 -52 1025 -59 1399 -14 111 13 298 55 317 70
7 6 13 26 13 44 0 18 3 47 6 65 6 29 9 31 37 26 61 -12 148 -59 187 -102 50
-55 59 -87 33 -122 -38 -52 -105 -87 -263 -135 -127 -39 -190 -52 -350 -72
-312 -39 -376 -41 -433 -16 -65 28 -186 58 -283 70 -43 6 -109 17 -145 25 -36
8 -104 20 -150 25 -111 14 -573 43 -623 39 -34 -2 -41 1 -65 37 -15 22 -60 64
-101 93 -41 29 -96 67 -121 86 -35 25 -73 39 -167 61 -67 16 -119 32 -114 36
16 15 141 38 201 36 l63 -2 2 -44z m-280 -31 c59 -6 124 -17 143 -25 20 -8 44
-15 54 -15 11 0 36 -15 56 -34 21 -18 61 -45 89 -59 53 -27 144 -118 144 -144
0 -15 -24 -15 -78 2 -17 6 -21 4 -17 -7 5 -11 -10 -19 -57 -32 -35 -10 -93
-35 -129 -57 -58 -35 -72 -39 -132 -39 -37 0 -67 -4 -67 -9 0 -12 56 -25 69
-17 20 13 20 -14 0 -48 -12 -21 -29 -36 -40 -36 -25 0 -24 -16 1 -23 15 -4 20
-14 20 -36 0 -18 -5 -31 -12 -31 -20 1 -51 28 -44 38 3 6 -2 8 -14 5 -11 -3
-20 -1 -20 4 0 16 -50 34 -67 24 -14 -7 -13 -10 5 -20 12 -7 22 -16 22 -22 0
-6 -7 -6 -19 1 -25 13 -108 13 -116 0 -3 -5 -19 -10 -36 -10 -16 0 -29 -5 -29
-11 0 -8 34 -10 121 -4 77 4 119 3 115 -3 -3 -5 -55 -13 -115 -17 -61 -3 -134
-13 -163 -21 -143 -39 -194 -45 -285 -34 -48 5 -94 10 -100 10 -7 0 -13 7 -13
15 0 20 -65 31 -95 15 -28 -15 -80 -4 -225 45 -173 60 -200 77 -200 134 0 75
-3 73 259 210 246 130 480 233 569 250 66 12 277 13 406 1z m2936 -180 c12
-17 20 -38 18 -48 -2 -10 -38 -51 -81 -92 l-78 -74 -81 -6 c-76 -5 -82 -7
-113 -42 l-33 -36 -104 -4 c-77 -2 -111 -8 -131 -21 -30 -19 -89 -22 -136 -6
-25 9 -44 7 -101 -10 -62 -19 -90 -21 -172 -12 -5 1 -8 10 -8 21 0 11 3 20 8
20 33 0 248 23 332 36 195 29 437 98 524 149 73 42 124 107 117 148 -3 17 19
5 39 -23z m-1952 -145 c322 -24 575 -69 765 -137 133 -47 163 -86 155 -203 -3
-45 -7 -52 -43 -77 -22 -15 -65 -35 -95 -46 -62 -20 -179 -91 -180 -108 0 -20
-32 -25 -44 -8 -8 11 -20 13 -39 9 -21 -6 -25 -10 -17 -21 9 -10 4 -14 -26
-20 -45 -8 -69 5 -69 37 0 16 -7 25 -21 27 -17 2 -20 -2 -16 -31 5 -41 -10
-54 -35 -32 -71 61 -90 72 -130 73 -41 2 -55 -9 -33 -23 8 -5 7 -11 0 -20 -9
-11 -7 -15 13 -20 14 -4 34 -5 44 -2 16 4 15 6 -4 12 -30 9 -30 27 -1 23 24
-3 57 -52 44 -65 -4 -4 -74 -8 -154 -8 -120 0 -153 3 -181 17 -41 22 -41 22
-41 4 0 -9 -8 -12 -27 -8 l-26 5 22 18 c21 17 21 18 3 28 -14 7 -27 5 -50 -9
-31 -19 -31 -19 -75 6 -24 13 -60 24 -78 23 -47 -1 -99 11 -99 23 0 5 20 8 45
6 55 -4 60 13 9 30 -45 15 -84 8 -84 -14 0 -11 -5 -14 -16 -10 -9 3 -22 6 -30
6 -8 0 -14 7 -14 15 0 22 -24 29 -50 15 -19 -10 -21 -9 -18 11 2 15 12 25 26
29 l24 5 -21 19 c-14 13 -28 16 -47 12 -21 -6 -25 -4 -21 8 3 8 0 20 -8 26
-16 13 -122 40 -129 32 -11 -11 7 -22 36 -22 21 0 31 -6 35 -20 3 -11 12 -20
19 -20 8 0 14 -4 14 -9 0 -5 9 -11 20 -14 11 -3 20 -10 20 -16 0 -16 -46 -13
-60 4 -9 11 -17 12 -30 5 -13 -7 -21 -7 -25 0 -3 5 1 10 9 10 19 0 22 20 4 21
-7 1 -27 0 -44 -1 -37 -2 -49 13 -45 53 2 23 -1 28 -16 27 -31 -4 -34 -1 -23
21 9 17 8 23 -6 33 -37 27 13 136 85 188 47 33 127 66 206 83 82 18 323 18
573 0z"/>
<path d="M816 2355 c-9 -13 -16 -36 -16 -50 0 -35 -24 -90 -60 -134 -42 -53
-117 -103 -250 -164 -271 -125 -414 -253 -470 -423 -27 -80 -23 -132 14 -206
41 -80 193 -206 251 -208 18 0 20 -7 21 -72 0 -130 12 -177 58 -232 57 -69
159 -151 232 -187 88 -44 211 -63 359 -56 66 3 145 13 175 21 152 42 286 143
338 253 24 52 27 70 27 171 l1 112 35 37 c19 20 47 50 62 66 44 46 54 67 71
140 19 83 20 215 2 282 -49 186 -147 268 -399 341 -282 80 -304 92 -369 193
-21 33 -28 57 -28 93 0 40 -3 48 -19 48 -10 0 -26 -11 -35 -25z m148 -251 c30
-14 102 -37 160 -52 58 -15 106 -29 106 -32 0 -3 -24 -14 -52 -24 -155 -54
-327 -203 -394 -341 -33 -67 -39 -91 -41 -150 l-2 -69 -64 -22 c-100 -34 -215
-98 -284 -158 -61 -53 -63 -54 -104 -45 -51 12 -81 33 -138 94 -94 102 -109
220 -44 349 58 115 188 215 438 338 135 66 156 80 220 145 l70 72 38 -40 c20
-22 62 -51 91 -65z m388 -114 c38 -11 151 -88 181 -124 25 -30 64 -115 71
-156 19 -109 25 -191 17 -213 -6 -14 -7 -27 -4 -30 13 -14 -33 -109 -87 -182
-34 -44 -65 -81 -70 -83 -19 -7 -10 30 15 62 86 113 120 350 67 468 -27 60
-104 158 -147 187 -123 83 -353 -21 -475 -215 -52 -82 -103 -209 -97 -241 3
-15 0 -22 -7 -20 -7 2 -11 32 -11 78 0 68 3 78 36 129 20 30 43 67 50 81 19
35 160 163 216 196 53 31 159 72 188 72 11 1 37 -4 57 -9z m26 -102 c46 -31
105 -135 125 -224 22 -96 -4 -264 -56 -356 -22 -40 -37 -47 -55 -25 -7 8 1 36
30 97 l39 85 -5 102 c-7 118 -32 198 -81 251 -27 30 -39 36 -87 40 -47 4 -65
0 -122 -27 -125 -60 -221 -187 -256 -338 -7 -29 -16 -53 -21 -53 -28 0 14 166
63 248 44 72 142 162 219 201 79 40 145 40 207 -1z m-37 -100 c44 -48 59 -99
66 -223 7 -120 -37 -274 -71 -246 -10 9 -9 29 5 103 50 256 -5 384 -152 355
-29 -6 -44 -18 -76 -65 -47 -66 -89 -147 -114 -217 -25 -71 -44 -73 -36 -4 9
75 65 183 129 248 60 61 116 90 172 91 32 0 44 -6 77 -42z m-52 -79 c19 -26
22 -44 24 -142 2 -123 -8 -207 -25 -207 -8 0 -9 25 -3 83 14 140 12 157 -19
183 -31 28 -56 30 -95 9 -32 -16 -46 -45 -70 -142 -16 -67 -30 -83 -58 -65 -9
6 -1 34 28 107 48 120 70 156 116 194 41 34 66 29 102 -20z m-221 -319 c136
-15 131 -29 -9 -23 -230 10 -402 -47 -517 -172 -83 -91 -95 -119 -95 -229 0
-50 5 -104 12 -120 17 -42 8 -42 -38 -1 -58 53 -75 105 -68 213 l5 87 49 44
c26 24 75 62 107 83 175 113 323 145 554 118z m137 -80 c180 -46 254 -134 243
-290 -8 -112 -64 -199 -171 -269 -118 -76 -254 -108 -415 -97 -173 13 -276 57
-337 146 -29 41 -30 48 -30 150 0 105 1 108 34 156 64 94 202 181 331 208 99
22 252 20 345 -4z"/>
<path d="M940 1291 c-115 -16 -235 -68 -305 -132 -61 -56 -89 -118 -89 -194 1
-103 56 -179 169 -232 57 -27 66 -28 205 -27 169 1 193 7 306 85 82 57 122
107 148 182 50 149 -12 256 -174 300 -69 19 -188 27 -260 18z m230 -47 c143
-42 187 -91 177 -198 -9 -104 -28 -133 -129 -204 -162 -115 -234 -136 -365
-107 -153 34 -233 91 -251 180 -31 150 52 249 278 332 56 21 77 23 150 19 47
-3 110 -13 140 -22z"/>
<path d="M868 1181 c-136 -49 -199 -117 -206 -223 -4 -55 -2 -62 24 -90 47
-49 100 -71 187 -76 68 -4 90 -1 177 27 109 36 165 71 209 131 56 77 49 158
-17 204 -42 29 -101 42 -217 50 -70 4 -90 1 -157 -23z m264 -22 c90 -20 139
-73 124 -133 -11 -46 -79 -109 -163 -150 -66 -34 -90 -40 -159 -44 -98 -5
-142 7 -195 55 -47 42 -50 72 -15 141 16 31 39 56 68 73 127 77 194 89 340 58z"/>
<path d="M915 1101 c-63 -15 -138 -73 -156 -120 -34 -86 169 -133 308 -71 57
25 87 52 103 91 10 24 10 33 -4 54 -29 43 -160 68 -251 46z m172 -36 c28 -8
53 -22 57 -30 8 -23 -43 -75 -99 -101 -112 -53 -282 -14 -245 56 40 74 172
109 287 75z"/>
<path d="M7716 2191 c-9 -15 -148 -57 -276 -85 -179 -38 -323 -50 -430 -36
-105 15 -135 8 -295 -70 -138 -67 -223 -134 -284 -223 -66 -98 -129 -154 -238
-211 -105 -56 -163 -109 -166 -152 -2 -25 4 -32 43 -51 64 -32 273 -63 422
-63 164 0 263 13 497 66 351 80 363 80 440 10 25 -24 57 -49 70 -56 34 -18
185 -40 274 -40 100 0 156 14 198 51 l34 28 -47 45 -47 44 6 55 c8 82 -3 123
-48 172 -48 52 -87 72 -176 88 l-68 13 30 16 c44 23 84 66 110 118 25 50 48
181 43 245 -3 39 -4 40 -45 43 -22 2 -44 -1 -47 -7z m24 -42 c0 -5 -24 -33
-52 -61 -96 -91 -296 -171 -523 -208 -136 -22 -310 -90 -428 -166 -170 -111
-487 -249 -618 -270 -36 -6 -41 -5 -38 11 2 10 29 32 59 48 193 103 280 172
332 264 58 102 187 193 362 253 51 17 84 20 247 20 207 0 230 3 484 73 189 53
175 50 175 36z m11 -190 c-22 -73 -132 -169 -193 -169 -52 0 -240 -44 -245
-57 -3 -8 6 -27 21 -42 30 -31 34 -71 8 -94 -43 -39 -302 -127 -491 -168 -125
-26 -330 -35 -457 -20 -165 21 -178 28 -91 57 90 29 229 99 425 212 175 103
252 131 472 177 300 63 450 122 530 210 l25 27 3 -49 c2 -26 -1 -64 -7 -84z
m-8 -243 c32 -15 69 -43 85 -63 24 -33 27 -44 27 -119 0 -45 -3 -85 -6 -89 -4
-3 -33 12 -66 34 -118 78 -260 131 -351 131 -17 0 -22 6 -22 28 0 15 -9 42
-20 60 l-20 33 22 8 c13 5 84 8 159 7 126 -2 139 -4 192 -30z m-241 -150 c79
-15 147 -45 243 -105 33 -21 86 -48 118 -61 73 -30 75 -56 7 -82 -56 -21 -126
-22 -223 -4 -88 17 -148 45 -197 92 -32 30 -42 34 -115 40 -97 7 -219 -11
-404 -61 -192 -52 -301 -66 -461 -59 -147 6 -279 26 -342 51 -65 26 -25 32
112 17 206 -22 359 -27 452 -16 142 18 423 89 558 141 151 59 152 59 167 60 6
1 44 -5 85 -13z"/>
<path d="M7238 1244 l-97 -56 -43 29 c-74 50 -104 58 -223 58 -123 -1 -194
-17 -358 -84 -141 -58 -239 -114 -587 -334 -464 -296 -574 -360 -818 -483
l-107 -54 85 5 c122 7 744 100 934 140 409 85 549 117 656 149 264 80 404 149
503 248 66 67 67 68 67 122 0 30 -4 58 -10 61 -16 10 -11 34 9 45 11 5 55 15
98 21 43 6 85 15 93 20 25 14 -62 10 -141 -6 -123 -26 -103 5 38 59 99 38 156
65 136 66 -7 0 -68 -20 -136 -45 -120 -43 -167 -54 -167 -37 0 4 36 25 80 47
43 21 92 49 107 61 l28 23 -25 1 c-14 0 -69 -25 -122 -56z m-323 -19 c136 -26
215 -84 254 -190 31 -81 28 -110 -15 -153 -27 -27 -38 -32 -44 -22 -4 7 -6 19
-3 26 8 20 -24 46 -47 39 -23 -7 -25 -30 -5 -65 22 -38 19 -47 -27 -77 -48
-32 -196 -98 -203 -91 -3 3 0 40 6 82 12 88 5 106 -42 106 -34 0 -33 3 -14
-64 11 -36 13 -65 7 -91 -6 -33 -13 -40 -41 -48 -42 -10 -46 -6 -32 34 22 64
9 109 -31 109 -15 0 -17 -7 -11 -65 11 -117 2 -122 -313 -190 -93 -20 -186
-40 -207 -46 -48 -13 -204 -39 -234 -39 -16 0 -23 6 -23 19 0 26 -10 51 -21
51 -5 0 -9 -15 -9 -34 0 -32 -20 -63 -33 -50 -3 4 -3 19 0 35 3 16 3 36 -1 45
-11 29 -36 -4 -36 -48 0 -22 -5 -41 -12 -43 -7 -2 -137 -23 -288 -45 -151 -22
-287 -43 -302 -46 -61 -12 -21 16 103 75 108 51 254 132 505 282 40 24 41 24
59 -11 9 -16 22 -30 30 -30 19 0 19 2 -2 45 -9 19 -14 38 -10 41 12 12 37 -5
37 -26 0 -12 7 -20 16 -20 16 0 16 22 -1 62 -5 13 27 39 161 129 l168 112 22
-28 c12 -16 28 -48 34 -72 14 -47 25 -54 35 -23 13 42 -18 108 -57 123 -10 3
-10 8 -2 17 17 17 45 -4 84 -64 32 -49 48 -50 36 -2 -3 12 -17 39 -30 59 l-25
37 22 14 c40 26 171 86 203 92 28 5 35 1 70 -40 21 -25 42 -46 46 -46 15 0 8
28 -18 65 -26 39 -22 54 17 55 29 0 105 -57 119 -89 9 -24 16 -29 25 -21 25
21 1 71 -49 101 l-30 18 25 10 c33 13 46 13 134 -4z"/>
</g>
</svg>
