<?xml version="1.0" standalone="no"?>
<!DOCTYPE svg PUBLIC "-//W3C//DTD SVG 20010904//EN"
 "http://www.w3.org/TR/2001/REC-SVG-20010904/DTD/svg10.dtd">
<svg version="1.0" xmlns="http://www.w3.org/2000/svg"
 width="612.000000pt" height="344.000000pt" viewBox="0 0 612.000000 344.000000"
 preserveAspectRatio="xMidYMid meet">
<metadata>
Created by potrace 1.16, written by Peter Selinger 2001-2019
</metadata>
<g transform="translate(0.000000,344.000000) scale(0.100000,-0.100000)"
fill="#000000" stroke="none">
<path d="M3069 3102 c-8 -4 -28 -17 -43 -29 -21 -17 -27 -29 -24 -48 5 -22 2
-25 -26 -25 -19 0 -43 -10 -60 -25 -16 -13 -32 -22 -37 -19 -4 2 -16 -10 -25
-27 -13 -26 -14 -33 -2 -41 10 -8 9 -9 -4 -4 -21 6 -25 0 -33 -44 -3 -18 -8
-37 -11 -42 -5 -8 -5 -69 0 -175 0 -18 4 -33 8 -33 3 0 6 -28 5 -63 l-2 -63
59 8 c33 5 71 15 84 24 13 8 29 13 35 11 25 -10 -83 -46 -167 -57 -49 -6 -93
-13 -98 -16 -18 -11 -103 19 -122 43 -10 13 -16 25 -14 27 84 53 120 109 142
221 23 114 44 173 83 232 30 46 70 83 89 83 4 0 -14 -22 -40 -50 -63 -67 -81
-115 -105 -272 -11 -74 -23 -142 -26 -153 -6 -18 -5 -18 4 -3 6 9 20 77 32
150 12 80 29 154 43 184 29 62 87 129 135 154 20 11 29 20 21 20 -8 1 -1 8 15
15 17 8 24 14 17 15 -29 1 -131 -61 -171 -105 -47 -51 -73 -103 -94 -186 l-14
-54 -89 3 c-70 2 -100 -2 -144 -18 -30 -12 -99 -28 -154 -35 -118 -17 -178
-35 -271 -84 -241 -124 -434 -503 -410 -805 6 -79 5 -88 -9 -83 -9 4 -47 10
-84 13 -63 7 -69 10 -106 51 -42 46 -76 57 -76 24 0 -32 -47 -61 -96 -61 -24
0 -90 -7 -145 -15 -98 -15 -102 -15 -134 5 -42 26 -57 25 -53 -2 3 -20 -4 -23
-87 -39 -72 -14 -120 -33 -240 -93 -82 -42 -161 -78 -175 -81 -47 -11 -72 -39
-81 -91 -11 -70 -10 -134 5 -174 12 -34 11 -36 -34 -81 -59 -59 -81 -106 -88
-185 -4 -55 -1 -71 22 -118 81 -166 370 -291 784 -342 98 -12 227 -15 564 -14
421 0 437 0 447 -19 6 -10 34 -37 63 -60 29 -22 58 -45 64 -49 5 -5 35 -19 65
-30 29 -12 50 -22 44 -23 -5 -1 13 -6 40 -10 141 -24 221 -28 405 -21 156 6
180 8 120 13 -52 4 -13 7 130 9 l205 4 -175 6 -175 6 139 2 c77 1 137 4 135 6
-2 2 -48 6 -101 8 -165 5 -109 18 90 20 l187 2 -175 6 c-133 4 -83 6 210 8
251 1 399 -2 425 -9 51 -14 800 -24 955 -12 l115 8 -135 5 c-79 4 71 8 360 10
l495 5 -435 5 -435 5 300 4 c165 2 293 5 285 7 -9 3 -119 8 -245 13 -225 8
-219 8 240 12 l470 4 -430 5 -430 5 334 3 c184 1 332 4 330 6 -2 2 -116 6
-252 9 -137 3 -251 8 -254 11 -4 3 167 7 378 8 l384 3 -340 5 -340 5 274 3
c151 1 272 4 270 6 -2 3 -100 6 -217 7 -116 1 -212 6 -212 11 0 4 123 9 273
10 l272 2 -245 6 -245 6 175 4 175 4 -145 6 c-80 3 -137 8 -127 13 10 4 91 8
180 9 l162 2 -150 6 c-117 5 -133 7 -75 10 63 3 67 4 27 7 -52 4 -55 23 -4 23
21 0 28 3 19 9 -10 6 -5 14 22 30 51 32 103 99 117 153 11 40 10 52 -5 93 -11
26 -38 65 -63 90 l-45 43 26 53 c14 30 29 69 32 87 6 31 6 32 -30 32 -20 0
-59 -9 -88 -20 -29 -11 -56 -20 -59 -20 -3 0 -3 27 -1 61 5 61 4 61 -19 54
-34 -11 -81 -35 -101 -52 -9 -8 -25 -12 -35 -9 -27 9 -96 103 -139 188 l-37
76 31 50 c42 65 60 79 150 127 90 47 94 56 61 145 -16 45 -28 62 -45 66 -31 8
-38 2 -84 -65 -36 -55 -128 -134 -191 -167 -25 -13 -31 -11 -78 19 -28 17 -51
35 -51 39 0 16 71 97 125 141 70 56 91 88 75 116 -5 11 -19 22 -29 26 -11 3
-24 19 -30 36 -20 59 -67 46 -105 -29 -40 -77 -83 -130 -146 -176 l-59 -44
-92 29 c-259 81 -455 95 -634 45 -157 -44 -141 -47 -148 21 -20 188 -29 246
-48 309 -79 259 -287 440 -555 484 -38 7 -100 21 -139 33 -47 14 -98 21 -154
21 l-83 0 6 40 c17 119 64 186 131 186 47 0 71 13 90 50 29 57 17 90 -26 72z
m-372 -368 c25 -7 24 -25 -3 -93 -14 -32 -15 -33 -36 -17 -44 31 -98 57 -151
70 -49 13 -50 15 -27 24 53 21 167 29 217 16z m-150 -63 c58 -20 123 -60 123
-77 0 -13 -47 -58 -78 -73 -17 -9 -32 -8 -70 5 -101 35 -302 17 -419 -38 -105
-49 -263 -245 -323 -400 -42 -110 -52 -163 -48 -272 3 -90 2 -96 -17 -96 -15
0 -17 3 -7 9 11 6 10 10 -5 16 -17 7 -17 8 2 15 17 7 17 9 3 9 -10 1 -18 8
-18 17 0 9 5 13 13 9 6 -4 5 0 -5 7 -24 20 -18 177 11 283 29 106 118 285 182
363 88 109 215 189 353 223 96 24 235 24 303 0z m516 -28 l-28 -38 43 38 c43
38 70 44 40 10 -32 -38 -28 -46 6 -10 20 20 41 37 46 37 5 0 0 -17 -11 -37
l-21 -38 21 24 c12 13 26 31 31 40 14 26 25 2 13 -29 -7 -18 -7 -28 -2 -24 6
3 14 17 19 30 5 13 14 24 20 24 13 0 13 -47 0 -55 -5 -3 -10 -12 -10 -18 1
-19 30 25 30 44 0 10 5 21 11 25 9 5 10 -6 7 -40 -5 -40 -4 -44 7 -29 7 10 15
30 18 43 3 14 4 3 3 -23 -3 -33 0 -45 7 -38 5 5 10 24 11 40 2 45 16 38 16 -8
0 -50 -16 -64 -61 -51 -48 14 -177 11 -224 -5 l-40 -14 40 5 c32 4 37 3 25 -6
-13 -10 -12 -11 5 -5 10 3 40 8 65 11 45 4 45 4 13 -8 -51 -21 -49 -28 3 -12
26 8 61 14 78 13 30 -1 29 -1 -12 -16 -62 -22 -45 -27 23 -8 68 20 81 14 28
-14 -49 -26 -38 -27 20 -2 57 25 70 14 20 -16 -21 -13 -31 -23 -23 -23 8 0 30
9 48 20 18 11 37 20 43 20 17 0 -5 -29 -37 -51 -16 -10 -24 -19 -19 -19 13 0
57 30 71 49 8 10 13 11 18 2 4 -6 -5 -24 -23 -41 -16 -17 -25 -30 -19 -30 5 0
23 14 40 30 17 17 32 29 34 27 10 -10 -14 -50 -41 -67 -17 -11 -24 -20 -16
-20 7 0 29 16 48 35 20 20 37 34 40 32 10 -11 -20 -59 -49 -77 -39 -24 -30
-27 13 -4 17 8 36 29 43 46 7 17 16 26 20 20 10 -16 -10 -57 -40 -81 -15 -11
-22 -21 -17 -21 17 0 61 39 68 60 4 11 10 18 15 15 15 -9 -2 -45 -37 -75 -38
-34 -30 -41 11 -9 15 12 32 33 38 48 6 16 12 21 15 13 9 -23 -18 -71 -51 -92
-17 -11 -26 -20 -19 -20 18 0 83 60 83 76 0 8 5 14 10 14 13 0 13 -26 0 -50
-6 -11 -27 -31 -48 -45 -20 -14 -32 -25 -27 -25 22 0 85 52 91 75 3 14 10 22
15 19 23 -14 -14 -74 -66 -105 -16 -11 -25 -19 -20 -19 22 0 76 42 95 72 23
38 26 31 6 -16 -15 -35 -52 -67 -101 -84 -16 -6 -23 -11 -15 -11 33 -1 98 38
119 73 28 45 33 46 19 4 -14 -42 -45 -76 -83 -93 -16 -7 -23 -14 -14 -14 27
-2 83 42 99 76 19 42 31 42 19 1 -11 -41 -64 -95 -101 -103 -16 -4 -27 -9 -24
-12 2 -3 20 0 39 6 39 13 81 54 98 96 9 23 13 26 16 12 3 -9 -6 -36 -19 -60
-17 -31 -37 -49 -78 -71 -38 -19 -46 -26 -25 -21 52 11 95 45 120 94 28 54 33
35 6 -24 -20 -43 -39 -63 -86 -89 -26 -15 -27 -16 -5 -10 41 11 79 43 100 85
25 48 30 49 20 4 -12 -54 -38 -83 -105 -116 -35 -18 -36 -20 -10 -14 40 8 96
53 118 96 l19 34 -6 -35 c-7 -39 -45 -83 -96 -110 -19 -11 -28 -19 -20 -20 18
0 53 22 93 58 15 14 27 21 27 16 0 -29 -107 -103 -152 -105 -17 -1 -18 -3 -5
-6 29 -8 87 17 130 56 24 21 36 28 29 16 -20 -38 -71 -78 -124 -97 -37 -13
-43 -17 -20 -14 52 9 99 35 133 74 25 28 30 31 24 12 -5 -16 -4 -20 5 -15 21
13 -16 -48 -47 -77 -16 -15 -47 -37 -68 -48 -24 -12 -30 -18 -15 -14 40 10 87
42 121 82 17 20 26 27 20 15 -14 -27 -14 -36 0 -27 6 3 3 -8 -5 -25 -9 -17
-26 -36 -39 -42 -19 -10 -19 -8 6 18 41 44 33 53 -10 11 -36 -35 -113 -77
-140 -78 -20 0 -15 30 5 31 16 1 16 2 0 6 -10 2 -18 11 -18 18 0 7 8 16 18 18
13 4 11 5 -5 6 -19 1 -23 7 -23 35 0 46 -44 195 -77 259 -66 131 -168 244
-266 293 -27 14 -77 31 -111 38 -64 14 -152 63 -196 110 -21 23 -22 29 -10 36
24 15 34 11 19 -7 -9 -12 -5 -11 11 3 26 23 63 44 76 44 4 0 -5 -14 -22 -32
-25 -27 -22 -26 26 10 30 23 56 42 58 42 2 0 -10 -17 -25 -37z m-571 -127 c57
-13 108 -39 108 -55 0 -5 -34 -11 -76 -13 -202 -13 -434 -213 -515 -444 -30
-86 -49 -180 -49 -251 0 -60 -1 -63 -24 -63 -48 0 -82 12 -91 33 -12 26 -35
34 -35 13 0 -19 -5 -20 -31 -6 -26 14 -24 29 4 24 21 -4 21 -4 -2 6 -13 6 -21
16 -18 24 3 7 0 19 -6 25 -8 8 -8 11 2 11 11 0 11 3 1 15 -10 12 -10 15 1 15
11 0 11 2 2 8 -10 6 -10 22 -3 67 39 239 223 499 400 566 100 37 236 48 332
25z m668 -67 c8 -1 2 -5 -15 -9 -27 -7 -25 -8 18 -9 32 -1 49 -6 53 -16 4 -8
16 -15 28 -16 20 0 20 -1 1 -9 -17 -7 -14 -9 15 -11 34 -2 33 -2 -10 -9 l-45
-7 60 -3 c58 -3 59 -3 20 -10 l-40 -7 50 -3 c41 -2 46 -3 25 -10 -23 -7 -22
-8 10 -9 40 -1 30 -17 -15 -24 -20 -3 -14 -4 19 -6 56 -1 54 -10 -7 -28 l-42
-13 40 6 c22 3 48 7 58 10 10 3 17 0 17 -9 0 -9 -19 -20 -47 -28 -26 -7 -42
-14 -37 -16 5 -2 31 3 58 11 42 13 47 13 44 -1 -2 -9 -19 -22 -38 -30 -32 -12
-33 -13 -5 -8 53 10 64 10 66 0 1 -5 -17 -18 -42 -27 -24 -9 -36 -17 -26 -17
10 -1 32 6 49 15 20 10 34 12 40 6 13 -13 -29 -41 -75 -52 -27 -7 -28 -8 -7
-9 14 0 38 6 54 14 35 18 46 19 46 2 0 -15 -29 -32 -80 -46 -19 -5 -27 -10
-18 -10 10 -1 38 6 64 15 25 8 48 14 50 11 8 -8 -32 -36 -66 -45 -19 -6 -27
-11 -17 -11 10 -1 34 6 54 14 20 8 38 13 40 11 10 -10 -44 -46 -81 -55 -29 -6
-34 -9 -16 -10 14 -1 43 8 65 19 21 11 41 18 43 15 12 -11 -33 -44 -74 -54
-24 -6 -44 -13 -44 -16 0 -9 66 8 98 26 17 10 32 15 32 10 0 -15 -38 -43 -77
-57 -23 -8 -30 -13 -18 -14 12 0 38 9 60 20 22 11 39 20 40 20 0 0 1 -14 2
-30 3 -35 -21 -55 -94 -76 -46 -13 -47 -14 -8 -8 22 3 57 14 78 24 26 14 37
16 37 7 0 -15 -34 -38 -80 -54 -23 -7 -28 -12 -15 -12 12 -1 37 7 57 18 l37
18 -2 -25 c-3 -32 -39 -59 -103 -77 -46 -14 -46 -14 -9 -9 22 3 58 14 80 26
l40 20 -20 -22 c-25 -28 -48 -40 -105 -56 -25 -7 -38 -13 -29 -13 9 -1 38 6
65 14 l49 14 -28 -24 c-15 -14 -35 -25 -44 -25 -9 0 -13 -3 -10 -7 11 -10 -24
-43 -47 -44 -20 0 -20 -1 -1 -8 19 -8 19 -8 -3 -22 -12 -8 -22 -17 -22 -21 0
-12 -100 -151 -118 -165 -9 -7 -12 -13 -8 -13 19 0 -18 -30 -38 -31 -20 0 -20
-1 -1 -9 18 -7 18 -9 -9 -19 -25 -10 -32 -9 -49 7 -19 19 -19 21 0 98 24 107
24 368 -1 504 -35 189 -105 356 -183 439 -24 24 -42 46 -40 47 2 2 18 10 37
19 32 14 101 15 210 4z m-489 -25 c7 -4 -6 -24 -34 -53 -157 -164 -249 -439
-251 -758 -1 -117 -2 -130 -16 -118 -8 7 -49 29 -90 48 -41 18 -104 53 -140
76 -35 23 -84 47 -107 53 -49 12 -66 28 -31 29 l23 0 -22 9 c-27 11 -32 35 -5
26 15 -5 15 -5 -1 8 -17 13 -18 21 -7 92 15 96 55 214 101 290 80 134 238 259
380 299 53 15 176 14 200 -1z m237 -31 c42 -34 114 -132 109 -147 -2 -6 3 -17
10 -25 12 -11 12 -15 1 -22 -10 -7 -9 -9 5 -9 19 0 24 -20 5 -20 -7 0 -5 -5 5
-11 23 -14 21 -27 -5 -32 -20 -4 -19 -4 5 -6 33 -1 35 -18 5 -32 -21 -9 -21
-9 5 -4 33 7 35 -7 5 -28 l-23 -15 28 5 c33 6 36 -9 5 -26 l-23 -12 23 5 c12
2 22 0 22 -5 0 -5 -10 -14 -22 -20 -21 -9 -21 -9 5 -4 37 7 34 -12 -5 -30 -24
-11 -26 -13 -8 -9 14 4 28 7 31 8 18 3 9 -21 -12 -32 l-24 -14 28 6 c44 10 29
-24 -18 -38 -11 -3 -2 -3 20 0 l40 6 -19 -21 c-11 -12 -33 -22 -50 -22 -30 -2
-30 -2 -4 -6 15 -2 37 1 48 7 19 10 21 9 18 -7 -2 -12 -18 -22 -48 -30 -36 -9
-39 -12 -17 -12 16 -1 37 4 48 9 15 8 19 7 19 -4 0 -9 -15 -20 -32 -26 l-33
-10 33 5 c32 4 43 -7 20 -21 -7 -4 -28 -11 -48 -15 l-35 -8 35 3 c19 2 44 7
55 11 18 8 19 7 6 -8 -7 -10 -34 -24 -60 -31 -25 -8 -37 -15 -26 -15 11 0 37
6 58 13 20 8 37 10 37 5 0 -12 -42 -39 -65 -40 -16 -1 -17 -2 -3 -6 9 -2 27 1
38 7 24 13 39 5 23 -11 -6 -6 -28 -17 -49 -25 -34 -13 -35 -14 -9 -11 17 2 39
8 50 12 20 8 20 8 1 -13 -10 -12 -37 -25 -60 -31 -34 -7 -36 -9 -13 -10 16 -1
37 4 49 10 11 6 22 8 26 5 11 -11 -16 -29 -65 -43 -48 -13 -48 -13 -8 -9 22 2
49 7 59 12 14 5 17 4 12 -5 -11 -17 -51 -32 -111 -41 -49 -7 -49 -8 -10 -8 22
-1 57 5 78 12 20 8 37 10 37 6 0 -13 -54 -32 -110 -40 l-55 -7 45 -1 c25 -1
62 5 83 12 32 12 36 12 26 0 -12 -14 -90 -40 -144 -47 l-30 -4 30 -2 c17 0 55
5 85 13 30 8 56 13 58 11 6 -6 -70 -36 -111 -44 -39 -8 -40 -9 -9 -10 18 -1
49 6 69 14 53 22 52 11 -1 -15 -25 -12 -69 -24 -99 -27 -48 -5 -57 -2 -100 27
-73 53 -198 52 -267 0 -24 -18 -25 -18 -57 11 -19 16 -45 29 -58 29 -26 0 -46
21 -26 28 9 3 8 7 -4 16 -25 18 -31 177 -11 333 33 260 100 425 220 545 82 82
192 99 264 41z m2092 -336 c0 -25 31 -59 64 -71 10 -3 16 -9 13 -12 -3 -4 -23
3 -43 15 -20 12 -39 20 -42 17 -2 -3 12 -15 32 -27 53 -31 44 -45 -11 -15 -39
22 -44 23 -29 7 10 -11 27 -23 38 -27 13 -4 17 -9 10 -16 -6 -6 -23 -1 -48 13
l-39 21 35 -31 c41 -36 20 -44 -26 -9 l-29 22 29 -32 c33 -35 18 -44 -24 -15
l-25 16 23 -25 c28 -31 19 -42 -17 -20 l-26 16 25 -28 c27 -31 23 -32 -35 -11
-16 6 -15 3 5 -13 33 -27 20 -37 -22 -17 l-33 16 30 -25 c36 -31 28 -43 -14
-22 -39 21 -55 20 -18 0 47 -26 24 -26 -33 -1 l-53 24 35 21 c45 28 121 109
143 153 23 46 64 99 76 99 5 0 9 -10 9 -23z m-665 -168 c101 -12 279 -61 399
-109 81 -32 221 -108 213 -116 -2 -3 -24 7 -48 21 -61 35 -73 31 -16 -5 26
-16 47 -32 47 -36 0 -4 -17 -4 -37 -1 -25 4 -33 3 -23 -3 8 -5 12 -11 9 -14
-3 -3 -97 -38 -210 -77 -297 -103 -381 -157 -437 -278 -22 -47 -26 -70 -25
-141 0 -55 6 -103 18 -135 10 -27 19 -60 21 -72 3 -32 66 -115 127 -168 57
-49 52 -60 -9 -19 -57 38 -111 93 -129 130 -19 41 -51 66 -180 140 -207 119
-210 127 -94 252 70 75 86 103 95 170 13 102 -20 133 -71 66 -43 -57 -133
-116 -288 -192 -194 -94 -200 -111 -89 -250 23 -30 42 -57 42 -62 0 -4 -42
-10 -92 -12 -88 -5 -198 -34 -221 -57 -6 -6 23 1 64 16 50 17 103 27 170 30
92 6 97 5 112 -18 10 -13 17 -19 17 -13 0 6 -32 57 -71 113 -97 140 -96 150
28 213 208 105 231 120 299 188 38 38 72 70 77 70 13 0 7 -110 -8 -146 -8 -20
-43 -66 -78 -102 -102 -106 -108 -131 -48 -191 22 -22 32 -37 23 -34 -46 16
12 -17 81 -47 42 -18 75 -35 73 -37 -7 -8 -96 24 -146 52 l-45 25 30 -25 c17
-14 62 -37 100 -51 103 -39 162 -71 179 -96 23 -33 19 -45 -6 -21 -13 11 -38
28 -57 38 -46 23 -173 66 -179 61 -4 -5 45 -28 89 -41 63 -20 149 -75 149 -96
0 -5 -16 3 -36 16 -33 22 -194 79 -202 70 -2 -1 23 -13 55 -24 95 -35 131 -53
150 -73 17 -19 16 -19 -34 1 -59 23 -173 54 -179 48 -2 -2 33 -16 79 -31 45
-15 93 -33 107 -42 l25 -14 -25 5 c-14 3 -65 14 -114 25 -49 11 -91 18 -93 16
-3 -3 24 -13 58 -24 50 -15 60 -21 45 -27 -18 -8 -91 3 -130 20 -14 6 -17 5
-12 -3 4 -7 32 -19 62 -28 54 -16 64 -34 18 -34 -14 0 -41 7 -61 15 -20 8 -38
13 -40 11 -7 -7 53 -36 74 -36 10 0 25 -5 33 -11 23 -16 -78 0 -120 19 -53 24
-57 25 -35 7 11 -10 34 -23 50 -31 l30 -13 -33 -1 c-18 0 -52 9 -75 20 -41 20
-41 20 -19 1 22 -19 22 -20 3 -26 -11 -3 -35 2 -53 11 -33 17 -33 17 -15 -3
16 -18 16 -21 2 -26 -16 -7 -65 11 -65 23 0 4 -13 13 -30 20 -22 9 -37 9 -61
1 -27 -9 -30 -9 -19 4 15 18 14 19 -25 33 -16 6 -59 23 -95 38 -56 23 -74 26
-135 21 -38 -3 -77 -7 -85 -9 -11 -2 -16 10 -20 51 -5 44 -11 57 -38 80 -22
17 -32 35 -32 53 0 14 -5 49 -12 77 -11 49 -10 53 27 125 21 41 80 132 131
203 261 358 271 365 655 472 216 61 282 68 434 50z m965 -28 c0 -24 8 -48 21
-65 12 -15 15 -24 7 -21 -8 3 -21 18 -31 33 -9 15 -17 22 -17 15 0 -6 12 -25
26 -42 23 -27 24 -31 7 -31 -23 0 -35 9 -56 40 -9 13 -17 19 -17 13 0 -6 11
-25 25 -41 21 -25 23 -31 9 -36 -9 -3 -25 4 -40 21 -27 29 -32 24 -8 -11 22
-35 -1 -44 -34 -15 l-26 24 17 -27 c21 -34 5 -48 -26 -21 l-21 18 17 -27 c20
-32 8 -44 -25 -27 -22 12 -23 11 -5 -8 14 -17 15 -22 4 -31 -7 -6 -24 -9 -38
-6 l-24 5 22 -13 c35 -21 14 -42 -33 -34 -28 5 -35 4 -24 -3 8 -6 23 -11 33
-11 10 0 17 -6 15 -12 -3 -7 -28 -15 -59 -18 l-54 -6 49 -8 c45 -8 48 -10 31
-22 -10 -8 -44 -15 -74 -15 l-56 -2 45 -7 c25 -4 51 -5 58 -3 6 3 12 0 12 -5
0 -14 -31 -24 -105 -33 l-60 -7 78 1 c42 1 77 -1 77 -5 0 -9 -63 -29 -124 -39
-46 -7 -43 -8 26 -5 43 2 75 -1 72 -5 -7 -11 -73 -29 -109 -29 -16 0 -37 -5
-45 -11 -11 -8 2 -9 48 -4 35 3 70 9 78 12 8 3 14 1 14 -4 0 -16 -51 -34 -107
-40 -29 -3 -53 -10 -53 -14 0 -12 15 -11 80 1 29 6 55 8 58 6 8 -9 -64 -40
-123 -52 l-60 -13 55 4 c30 2 64 7 75 11 18 7 18 6 7 -9 -13 -15 -76 -40 -132
-51 -14 -3 2 -3 35 -1 50 4 57 3 40 -7 -11 -7 -40 -18 -65 -24 l-45 -13 35 -1
35 -1 -25 -14 c-14 -8 -34 -15 -45 -15 l-20 -1 20 -9 c12 -5 14 -9 6 -9 -8 -1
-12 -4 -9 -7 8 -7 83 40 131 82 34 31 43 34 100 34 68 0 150 -20 182 -45 18
-13 15 -13 -25 1 -25 8 -81 17 -125 19 l-80 4 85 -15 c79 -14 199 -58 188 -69
-3 -3 -38 4 -79 14 -41 10 -105 21 -144 25 l-70 5 94 -19 c111 -23 221 -58
221 -71 0 -13 0 -13 -160 21 -79 17 -148 29 -154 27 -5 -2 62 -21 149 -42 153
-36 186 -48 173 -60 -8 -9 -192 24 -266 47 -35 11 -66 17 -68 15 -8 -8 152
-56 244 -73 114 -20 124 -40 16 -31 -85 8 -171 28 -239 57 -59 25 -58 17 3
-14 55 -28 141 -51 225 -61 49 -6 56 -9 45 -22 -23 -28 -187 2 -293 53 -55 28
-32 4 28 -27 36 -19 114 -41 190 -54 47 -8 39 -25 -11 -25 -62 0 -164 29 -232
66 -44 23 -57 28 -40 13 39 -34 141 -78 208 -90 81 -14 72 -34 -11 -24 -75 8
-153 37 -207 76 -54 40 -62 32 -10 -10 51 -41 115 -69 174 -77 71 -10 66 -25
-6 -18 -88 9 -158 37 -213 87 -29 24 -44 33 -37 21 14 -27 64 -64 127 -97 40
-20 46 -27 32 -32 -27 -11 -102 22 -166 72 l-56 44 57 -54 c32 -31 77 -63 102
-72 49 -19 60 -35 24 -35 -42 0 -132 50 -187 103 -29 29 -49 43 -43 31 6 -11
31 -39 56 -62 25 -23 46 -45 46 -47 0 -3 -12 -5 -27 -5 -26 0 -103 69 -146
130 -10 14 -8 6 4 -18 13 -23 45 -63 72 -89 46 -43 51 -46 78 -36 35 14 37 4
9 -42 -23 -38 -83 -81 -131 -96 -19 -5 -56 -6 -84 -2 l-50 7 40 7 c29 4 33 7
13 8 -15 0 -30 6 -34 13 -5 8 2 9 27 5 27 -5 30 -4 16 4 -16 9 -14 13 18 39
22 17 55 32 81 36 l44 6 -30 17 c-45 24 -109 89 -142 146 -16 27 -26 39 -22
25 11 -39 73 -128 106 -151 16 -12 27 -23 24 -26 -3 -3 -19 5 -37 18 -60 45
-109 100 -139 157 -17 31 -28 46 -24 32 8 -31 30 -76 57 -115 l21 -30 -27 24
c-38 34 -75 91 -103 158 -19 44 -23 50 -18 23 3 -19 19 -59 35 -89 24 -45 25
-51 8 -35 -30 27 -68 96 -90 162 -17 49 -19 51 -14 17 7 -45 47 -139 73 -170
17 -20 17 -20 -6 -1 -12 11 -37 49 -55 85 -30 61 -32 72 -32 171 0 124 15 161
93 232 68 61 143 98 312 156 355 122 496 200 590 327 49 66 70 71 70 16z
m-4370 -166 c0 -2 -15 -12 -32 -21 -18 -9 -44 -27 -58 -39 -14 -13 -48 -33
-76 -44 -47 -18 -52 -18 -68 -3 -15 15 -16 15 -16 -6 0 -14 -11 -27 -32 -38
-64 -32 -135 -93 -153 -130 -50 -106 5 -196 170 -277 136 -67 312 -107 565
-127 258 -21 594 15 789 84 64 23 63 19 -2 -15 -40 -21 -88 -34 -158 -45 -56
-8 -129 -21 -163 -29 -33 -8 -108 -16 -166 -17 l-105 -2 110 -5 110 -6 -185
-8 c-200 -8 -428 7 -545 38 -264 69 -398 125 -473 198 -57 55 -65 79 -60 186
6 107 7 109 97 141 31 11 72 29 91 40 71 42 199 100 251 114 54 15 109 20 109
11z m570 -26 c12 -9 12 -10 -4 -5 -16 6 -17 4 -6 -9 10 -12 10 -15 -4 -15 -10
0 -15 -4 -12 -8 6 -10 -22 -35 -65 -57 -37 -20 -127 -12 -136 11 -9 25 17 42
90 59 39 9 78 20 86 25 21 12 33 12 51 -1z m548 -30 c18 -6 56 -27 85 -46 29
-20 89 -53 133 -74 53 -24 90 -49 104 -68 28 -40 14 -39 -25 0 -16 17 -55 42
-84 55 -30 14 -69 35 -85 48 -34 25 -110 66 -123 66 -4 -1 10 -10 32 -21 22
-12 57 -33 79 -47 21 -15 68 -43 104 -62 59 -32 67 -39 78 -80 7 -24 12 -45
11 -46 -1 -1 -12 -6 -24 -13 -20 -10 -23 -8 -32 24 -22 79 -100 143 -250 202
-107 43 -191 83 -191 92 0 8 140 -14 188 -30z m-823 10 c-11 -16 15 -66 44
-86 38 -26 284 -34 275 -9 -5 12 0 16 17 17 13 0 18 3 12 6 -8 2 -13 22 -13
44 l0 39 43 -1 c23 -1 55 -4 71 -8 l30 -6 -27 -12 c-60 -28 -67 -107 -13 -147
23 -18 45 -21 147 -24 81 -3 119 0 119 7 0 6 11 11 25 11 25 0 36 19 13 21 -7
0 -4 4 7 9 11 5 15 9 9 9 -7 1 -14 17 -16 37 -4 33 -3 35 21 29 14 -4 45 -15
69 -25 l43 -19 -23 -27 c-13 -14 -51 -39 -85 -54 -85 -39 -105 -83 -60 -135
16 -19 40 -30 92 -40 77 -16 199 -20 176 -6 -9 6 -4 10 18 13 36 5 36 6 14
-43 -12 -25 -31 -45 -53 -55 -19 -10 -51 -27 -70 -40 -19 -13 -69 -34 -110
-48 -324 -107 -824 -114 -1180 -16 -149 41 -291 130 -320 200 -17 40 -8 100
21 140 25 33 138 114 147 105 3 -3 -4 -12 -16 -21 -12 -8 -40 -29 -64 -47 -79
-61 -72 -133 17 -164 76 -27 311 3 243 30 -7 3 -2 6 12 7 14 1 19 4 13 7 -7 2
-13 20 -13 39 0 47 -14 70 -60 99 -39 25 -80 63 -80 75 0 6 67 30 84 30 3 0 6
-10 6 -23 0 -41 41 -68 117 -78 72 -9 227 -11 205 -2 -20 8 -3 23 26 24 26 0
26 1 5 9 -16 7 -21 15 -18 31 3 13 -5 39 -16 58 -16 27 -17 36 -7 42 20 13
111 11 103 -2z m-159 -14 c14 -13 13 -15 -3 -15 -15 0 -16 -2 -3 -10 12 -8 12
-10 -4 -16 -14 -5 -15 -9 -4 -15 10 -7 9 -9 -4 -9 -9 0 -21 -6 -25 -14 -25
-43 -133 -60 -173 -28 l-23 18 27 21 c14 12 58 31 96 42 38 12 72 26 75 31 9
14 24 12 41 -5z m779 -22 c-3 -38 -15 -64 -26 -57 -5 3 -8 0 -7 -6 5 -19 -46
-51 -89 -57 -33 -4 -45 -1 -62 16 -34 34 -14 55 84 86 47 15 88 31 91 36 9 15
11 10 9 -18z m226 -136 c-6 -8 -8 -16 -5 -20 8 -8 -42 -38 -79 -47 l-32 -8 30
-1 c17 0 46 9 65 21 35 22 74 33 64 17 -2 -4 -12 -6 -22 -3 -9 3 -6 -2 8 -11
14 -9 17 -14 7 -11 -10 3 -16 2 -12 -3 3 -5 -1 -12 -7 -15 -7 -3 -2 -4 12 -1
14 3 19 2 12 -1 -6 -3 -10 -9 -7 -14 3 -4 -5 -6 -17 -3 -17 3 -19 2 -9 -5 11
-8 9 -11 -8 -17 -12 -3 -19 -10 -16 -15 8 -13 -76 -30 -97 -19 -26 14 -33 55
-14 84 12 18 83 63 135 83 2 1 -2 -4 -8 -11z m719 -77 c13 -9 13 -10 0 -10 -8
-1 0 -7 18 -15 38 -17 44 -29 6 -15 -46 18 -40 10 16 -21 30 -17 48 -28 40
-26 -57 16 -60 15 -17 -8 26 -14 47 -27 47 -29 0 -2 -21 2 -47 10 -63 19 -67
10 -4 -11 55 -18 84 -43 37 -31 -62 15 -77 14 -28 -2 89 -29 58 -45 -33 -17
-27 8 -51 13 -53 11 -4 -4 79 -32 118 -40 14 -2 -4 -3 -40 -2 -62 2 -64 2 -35
-11 30 -14 30 -14 -14 -9 -30 3 -40 1 -30 -5 12 -7 12 -9 -1 -10 -8 -1 -18 -1
-22 0 -5 0 -8 -4 -8 -9 0 -14 -33 -13 -48 2 -7 7 -12 20 -12 30 0 29 -57 134
-85 156 -21 17 -23 21 -10 32 41 34 170 53 205 30z m-346 -59 c3 -5 23 -12 43
-16 21 -4 43 -10 48 -14 6 -4 21 -8 35 -9 21 -1 23 1 8 9 -10 6 -18 15 -18 21
0 6 9 3 20 -7 11 -10 18 -20 15 -23 -3 -3 6 -20 20 -38 26 -34 32 -50 15 -39
-15 9 -12 -2 7 -33 11 -17 3 -12 -24 16 -22 23 -44 42 -48 42 -5 0 7 -17 27
-37 32 -34 58 -73 58 -87 0 -3 -21 16 -46 42 l-46 47 45 -60 c25 -32 44 -61
41 -64 -2 -3 -28 17 -56 45 -50 47 -44 34 14 -31 46 -50 31 -50 -29 1 l-58 48
45 -47 c51 -54 42 -61 -21 -16 -41 29 -42 30 -20 5 34 -36 14 -33 -66 13 -37
22 -81 43 -98 46 -47 11 -125 36 -125 41 0 12 34 71 54 92 26 30 73 55 86 47
14 -9 12 -32 -2 -39 -7 -3 0 -4 16 -3 16 1 32 8 34 16 3 8 0 11 -7 7 -6 -4
-11 -5 -11 -2 0 2 -3 11 -6 20 -5 12 0 16 19 16 14 0 28 -4 31 -9z m532 -47
c61 -36 118 -107 110 -136 -13 -48 -21 -53 -55 -28 -18 12 -44 25 -59 29 -24
6 -28 14 -33 57 -3 27 -9 61 -13 77 -10 33 -6 34 50 1z m2608 -96 c-26 -76
-48 -108 -104 -152 -66 -51 -86 -64 -76 -48 8 13 -5 16 -20 5 -5 -5 4 4 21 19
16 15 26 28 21 28 -5 0 -1 9 9 20 10 11 13 20 7 20 -12 0 -11 18 2 39 7 11 5
13 -8 8 -10 -4 -15 -3 -11 3 3 6 1 10 -5 10 -6 0 -9 4 -6 9 4 5 1 11 -6 13 -7
3 -5 7 6 11 10 4 15 3 11 -3 -12 -20 12 -9 35 15 13 14 28 24 34 23 6 0 18 1
26 5 31 12 45 15 62 16 16 1 16 -2 2 -41z m-5162 -5 c8 -10 30 -58 49 -107 45
-118 93 -171 201 -224 91 -44 217 -83 348 -107 176 -31 502 -43 775 -27 l130
7 -100 6 -100 5 123 2 c102 2 124 -1 129 -13 3 -9 3 -18 0 -22 -3 -3 -68 -16
-144 -30 -196 -34 -544 -43 -763 -18 -389 43 -708 173 -766 312 -30 71 -10
148 52 203 40 35 46 36 66 13z m1893 -48 c92 -28 127 -50 132 -84 3 -21 2 -21
-25 -4 -27 17 -27 17 -9 -3 23 -28 10 -38 -22 -17 -26 16 -26 16 -8 -4 23 -26
22 -37 -4 -30 -16 4 -18 3 -8 -9 9 -11 8 -15 -5 -20 -9 -3 -13 -10 -10 -15 11
-18 -7 -31 -23 -17 -15 12 -15 11 -2 -9 16 -27 6 -41 -18 -22 -17 13 -17 13 0
-7 17 -21 23 -44 10 -44 -4 0 -18 10 -32 22 -14 13 -10 6 8 -15 40 -43 25 -49
-28 -11 -26 18 -22 12 14 -20 59 -55 47 -60 -25 -11 -29 20 -47 28 -39 19 8
-10 34 -30 58 -46 25 -15 42 -28 39 -28 -18 0 -83 35 -115 62 -35 30 -36 30
-13 4 14 -16 39 -37 55 -47 17 -11 26 -19 22 -19 -14 0 -71 31 -97 54 -14 11
-9 4 12 -16 41 -42 39 -48 -6 -19 -17 11 -33 18 -37 15 -12 -7 -70 57 -85 93
-26 61 -14 124 37 199 29 43 78 73 118 74 13 0 61 -11 106 -25z m605 9 c23 -5
28 -9 18 -16 -9 -7 -7 -8 10 -5 12 3 20 1 16 -4 -3 -5 -1 -9 3 -9 5 0 18 -7
29 -15 18 -14 17 -15 -11 -9 -26 5 -24 2 11 -14 57 -27 65 -45 13 -27 -61 22
-72 17 -14 -6 80 -33 85 -55 6 -28 -18 6 -35 9 -38 6 -3 -3 20 -13 51 -22 31
-9 56 -19 56 -22 0 -3 -26 -3 -57 0 l-58 6 45 -13 c76 -21 78 -26 10 -22 -69
4 -67 1 15 -20 l50 -13 -70 3 c-50 3 -63 1 -46 -5 13 -5 44 -10 68 -11 31 -2
38 -5 27 -11 -9 -5 -41 -7 -71 -4 -75 8 -58 -4 19 -14 l63 -8 -80 3 -80 3 45
-14 c25 -8 61 -12 80 -9 28 4 31 3 16 -6 -10 -5 -45 -8 -77 -6 -33 2 -54 1
-47 -4 7 -4 38 -8 68 -9 50 -1 52 -2 25 -10 -28 -9 -72 -6 -120 8 -11 3 -17 2
-13 -2 4 -4 31 -13 60 -21 41 -9 46 -12 23 -13 -17 -1 -46 3 -64 9 -54 15 -49
3 5 -14 62 -18 36 -21 -34 -2 -60 15 -66 12 -19 -8 20 -9 25 -15 14 -15 -10
-1 -33 6 -52 13 -42 18 -46 13 -7 -8 l27 -15 -41 3 c-45 3 -67 13 -59 26 3 4
-3 7 -12 6 -38 -3 -89 116 -80 186 17 128 140 209 277 182z m-2168 -205 c15
-52 27 -97 25 -102 -1 -4 -22 3 -47 15 -43 22 -46 27 -72 103 -36 109 -37 105
20 91 l47 -12 27 -95z m1854 91 c29 -10 29 -11 29 -93 0 -45 4 -91 9 -102 8
-16 7 -18 -5 -10 -8 6 -1 -2 16 -17 32 -30 31 -33 -9 -18 -45 17 -28 0 22 -22
26 -12 41 -23 34 -26 -7 -2 -36 7 -64 21 -28 14 -44 19 -37 12 8 -8 27 -21 43
-29 l30 -15 -45 1 c-24 1 -50 6 -58 12 -11 8 -13 8 -7 -1 5 -10 -17 -13 -99
-13 -121 0 -120 -1 -119 90 0 143 136 253 260 210z m-1754 -38 c9 -9 50 -183
44 -189 -2 -3 -26 1 -52 9 l-48 13 -22 75 c-11 41 -24 87 -28 102 l-6 27 52
-15 c29 -9 56 -19 60 -22z m-516 -90 c130 -145 447 -243 886 -274 200 -14 433
-2 631 33 70 12 130 20 133 17 3 -3 6 -18 7 -34 2 -29 1 -29 -83 -46 -169 -34
-284 -43 -545 -43 -195 1 -289 5 -378 18 -440 66 -719 223 -716 402 l1 40 11
-33 c6 -19 29 -55 53 -80z m1648 71 c-14 -65 -38 -139 -48 -150 -6 -6 -28 -15
-50 -19 -34 -6 -38 -5 -33 12 6 21 25 119 29 149 3 19 21 25 96 34 9 1 10 -7
6 -26z m-1043 -2 l55 -12 11 -77 c7 -43 13 -84 15 -92 2 -11 -6 -14 -31 -11
-72 6 -77 12 -100 111 -24 104 -24 103 -13 97 4 -3 32 -10 63 -16z m926 -8
c-3 -10 -11 -49 -17 -86 -7 -37 -18 -74 -26 -81 -11 -12 -93 -31 -99 -24 -5 6
25 182 32 189 9 8 44 16 86 18 22 1 27 -3 24 -16z m3581 -12 c46 -10 88 -23
93 -28 14 -14 -45 -44 -69 -37 -13 5 -14 4 -4 -4 21 -14 -135 -54 -179 -45
-33 7 -33 7 -9 15 17 5 11 6 -20 3 -32 -3 -39 -1 -25 5 14 6 15 9 5 9 -25 2
10 20 40 22 l25 1 -25 8 c-20 6 -21 8 -5 8 11 0 31 -4 45 -8 l25 -8 -25 -2
c-24 -2 -24 -2 5 -11 38 -12 142 9 110 22 -29 11 -55 10 -30 -2 24 -12 -27 -5
-89 12 -29 8 -36 13 -25 20 8 5 22 9 32 9 9 0 16 3 16 8 -5 27 0 27 109 3z
m-3718 -13 c0 -47 -22 -153 -33 -164 -7 -7 -36 -14 -65 -16 -53 -5 -53 -5 -48
21 3 14 8 54 11 88 l7 61 56 15 c75 20 72 20 72 -5z m-623 6 c26 -7 29 -16 38
-113 l7 -74 -51 5 c-28 3 -54 8 -57 11 -8 8 -33 125 -34 155 0 19 5 22 38 22
20 0 47 -3 59 -6z m159 -18 c1 0 4 -40 8 -88 l6 -88 -54 0 c-30 0 -57 4 -60 8
-2 4 -8 47 -12 96 l-7 88 59 -7 c32 -4 60 -8 60 -9z m156 -86 c-1 -48 -7 -87
-14 -91 -9 -6 -109 -1 -114 4 -1 1 -4 41 -8 88 l-7 86 73 -1 73 -1 -3 -85z
m158 53 c0 -21 -3 -62 -6 -90 l-7 -53 -70 0 c-67 0 -69 1 -63 23 3 12 6 52 6
90 l0 67 70 0 70 0 0 -37z m496 -147 c158 -66 539 -93 799 -55 75 11 181 41
227 65 15 8 28 12 28 9 0 -4 -29 -19 -64 -35 -58 -26 -107 -38 -286 -69 l-55
-9 70 5 c112 7 194 22 258 49 77 31 86 24 13 -10 -66 -31 -155 -53 -267 -65
l-84 -8 65 -1 c80 -2 197 19 269 47 60 22 80 21 34 -2 -53 -28 -160 -55 -259
-67 -95 -11 -132 -20 -85 -20 69 0 223 25 284 45 77 26 103 26 41 0 -68 -28
-176 -54 -264 -64 -82 -8 -83 -8 -25 -10 74 -1 171 14 244 39 64 21 82 18 27
-5 -55 -23 -139 -43 -246 -59 -53 -7 -79 -14 -58 -15 75 -2 221 24 303 54 14
6 17 5 10 -3 -17 -18 -185 -62 -275 -72 l-85 -9 100 4 c87 3 151 14 230 40 16
5 17 5 4 -4 -27 -18 -164 -51 -266 -65 -62 -9 -83 -14 -56 -15 23 0 76 4 118
10 42 6 79 8 82 6 7 -7 -94 -27 -189 -37 l-83 -9 115 3 c127 3 113 -10 -22
-21 -43 -3 -78 -10 -78 -14 0 -4 33 -5 73 -2 120 10 70 -5 -78 -23 -159 -19
-248 -11 -362 31 -156 59 -263 185 -291 343 -11 61 -17 60 84 18z m1367 -17
c73 -32 98 -52 40 -32 -41 14 -75 2 -98 -34 -30 -48 -106 -53 -209 -13 -25 9
-26 13 -20 47 8 48 12 52 65 63 69 14 139 5 222 -31z m2102 1 c-3 -5 -18 -10
-33 -10 -19 0 -23 -3 -13 -9 18 -12 -144 -90 -272 -130 -135 -43 -356 -86
-577 -112 -152 -18 -241 -23 -500 -23 -320 -1 -446 7 -690 44 -139 21 -321 58
-339 69 -8 6 -7 17 4 45 12 29 20 36 33 31 52 -20 139 -36 167 -31 28 6 38 2
64 -25 28 -27 37 -31 68 -26 23 4 46 1 66 -9 16 -9 43 -14 60 -11 16 2 80 -3
141 -11 177 -23 780 -24 971 -2 83 10 132 19 110 20 -26 2 4 9 85 21 158 23
184 29 95 23 -38 -3 -81 -8 -95 -11 -14 -3 -22 -3 -19 1 4 4 82 18 174 31 182
26 395 65 395 71 0 3 -24 2 -52 0 l-53 -6 65 15 c88 20 96 26 30 20 -66 -6
-57 0 30 19 82 18 93 18 85 6z m-586 -46 c47 -5 59 -10 51 -19 -16 -20 -123
-64 -156 -65 -55 -1 -141 7 -153 14 -16 10 -4 26 22 27 21 0 21 1 3 8 -19 7
-18 8 5 16 77 26 123 30 228 19z m-1051 -41 c34 -4 49 -9 40 -14 -9 -6 -6 -9
12 -10 l25 -1 -25 -8 c-14 -5 -18 -8 -9 -9 9 -1 19 -12 21 -25 5 -24 2 -25
-59 -32 -48 -5 -86 -1 -156 14 -50 12 -101 22 -112 24 -41 7 120 63 190 67 11
0 44 -2 73 -6z"/>
<path d="M943 1351 c-8 -21 -28 -38 -72 -60 -86 -44 -118 -114 -71 -156 26
-24 251 -47 258 -27 2 7 14 12 27 12 13 0 27 5 30 10 3 6 2 10 -4 10 -6 0 -8
7 -5 15 16 41 -8 88 -79 156 -39 38 -71 69 -72 69 0 0 -6 -13 -12 -29z m34
-30 c15 -24 -10 -48 -89 -85 -31 -15 -59 -34 -62 -43 -6 -15 -5 -15 11 -1 10
8 53 32 97 52 59 29 81 35 90 26 8 -8 6 -9 -9 -4 -18 7 -18 6 -6 -9 12 -15 11
-17 -4 -17 -10 0 -16 -3 -12 -6 3 -3 -13 -20 -35 -38 -23 -17 -44 -38 -46 -46
-3 -8 7 -3 21 13 14 15 30 27 35 27 17 0 81 57 74 66 -4 5 -3 5 2 1 14 -11 16
-37 3 -37 -7 0 -5 -5 3 -10 13 -8 13 -10 -2 -10 -9 0 -20 -10 -24 -22 -12 -39
-34 -47 -121 -48 -79 0 -83 1 -83 23 0 16 -3 18 -9 9 -18 -29 -21 21 -4 57 14
27 32 43 76 64 32 15 60 34 63 42 8 20 17 19 31 -4z"/>
<path d="M1802 1346 c-6 -14 -38 -38 -74 -58 -97 -51 -122 -126 -57 -166 48
-30 289 -35 289 -6 0 8 10 14 23 15 12 0 16 3 10 6 -7 2 -13 20 -13 38 0 52
-9 64 -70 95 -57 29 -70 44 -70 81 0 27 -25 24 -38 -5z m44 -75 c-3 -5 1 -11
9 -15 21 -8 19 -26 -2 -26 -15 0 -16 -2 -3 -10 12 -8 10 -10 -10 -10 -19 0
-22 -2 -10 -10 12 -8 12 -10 -3 -16 -9 -3 -15 -9 -13 -13 3 -4 -14 -17 -37
-30 -35 -19 -47 -21 -70 -12 -23 9 -28 16 -25 38 3 25 48 58 143 102 26 13 27
13 21 2z"/>
<path d="M1345 1318 c-12 -19 -37 -38 -65 -48 -25 -10 -57 -29 -72 -43 -55
-50 -26 -136 53 -157 53 -14 238 -15 252 -1 8 8 7 11 -4 11 -11 1 -11 2 2 10
26 15 9 98 -27 128 -84 68 -94 80 -94 106 0 35 -20 32 -45 -6z m25 -29 c0 -26
-23 -49 -59 -59 -43 -11 -102 -48 -109 -68 -2 -7 8 -2 22 11 14 14 47 30 72
37 26 7 60 25 77 39 17 14 28 21 24 15 -4 -7 0 -15 8 -18 20 -7 6 -32 -59
-103 -64 -68 -110 -72 -142 -11 -25 48 -5 82 72 118 35 17 66 35 69 40 8 13
25 13 25 -1z"/>
</g>
</svg>
